<svg width="33" height="20" viewBox="0 0 33 20" fill="none" xmlns="http://www.w3.org/2000/svg">
<rect x="0.5" width="32" height="20" rx="4" fill="#D80027"/>
<path d="M25.5 8.11137H19.0066L17 2L14.9934 8.11137H8.5L13.7533 11.8884L11.7467 17.9999L17 14.2228L22.2533 18L20.2467 11.8885L25.5 8.11137ZM15.2236 11.4156L15.9021 9.34903H18.0978L18.7764 11.4156V11.4157L17 12.6929L15.2236 11.4157L15.2236 11.4156ZM17.6915 8.11137H16.3085L17 6.00523L17.6915 8.11137ZM19.8403 10.6507L19.4129 9.34909H21.6506L19.8403 10.6507ZM14.5871 9.34909L14.1597 10.6507L12.3492 9.34909H14.5871ZM14.1257 14.7596L14.8172 12.6535L15.9361 13.4579L14.1257 14.7596ZM18.0639 13.458L19.1828 12.6535L19.8743 14.7596L18.0639 13.458Z" fill="#FFDA44"/>
</svg>
