<svg width="152" height="16" viewBox="0 0 152 16" fill="none" xmlns="http://www.w3.org/2000/svg">
<path d="M2.00098 2.00065C3.28126 0.720579 5.01891 0.00172857 6.82932 0.00172857H20.0011V4.0013H7.30401C6.46897 4.0013 5.67031 4.33215 5.07954 4.92281L4.00023 6.00195H19.9994V16H0V12.0004H15.9992V10.0015H0V6.82992C0 5.01981 0.718967 3.28245 1.99925 2.00238L2.00098 2.00065ZM22.0021 15.9983V0.00172857H26.0023V6.00022H30.9242L35.0856 1.84995C36.2723 0.66515 37.8818 0 39.5588 0H42.0015L34.4394 7.99913L42.0015 15.9983H36.8769L30.9242 9.99979H26.0023V15.9983H22.0021ZM52.0012 15.9983V9.00033L44.0008 0.00172857H46.5076C48.4029 0.00172857 50.2099 0.803721 51.4798 2.21024L54.0005 5.00075L56.4554 2.24488C57.727 0.81758 59.5478 0.00172857 61.4587 0.00172857H64.0002L55.9997 9.00033V15.9983H51.9995H52.0012ZM66.0012 15.9983V0.00172857H70.0014V12.0004H82.0021C84.211 12.0004 86.0023 13.7915 86.0023 16H66.0029L66.0012 15.9983ZM88.0015 0.00172857H101.173C102.984 0.00172857 104.721 0.720579 106.002 2.00065C107.282 3.28072 108.001 5.01808 108.001 6.8282V15.9983H104.001V9.99979H92V15.9983H87.9998V0.00172857H88.0015ZM92 6.00022H104.001L102.781 4.78078C102.282 4.28191 101.605 4.0013 100.898 4.0013H92V6.00022ZM110 15.9983V0.00172857H123.172C124.982 0.00172857 126.72 0.720579 128 2.00065C129.281 3.28072 130 5.01808 130 6.8282V15.9983H125.999V7.41367C125.999 6.50775 125.639 5.63992 125 5.00075C124.359 4.35985 123.491 4.0013 122.586 4.0013H114V16H110V15.9983ZM152 0.00172857C152 2.21024 150.209 4.0013 148 4.0013H132.001C132.001 1.79279 133.792 0.00172857 136.001 0.00172857H152ZM149.575 6.00022V9.99979H132.001V6.00022H149.575ZM152 15.9983H136.001C133.792 15.9983 132.001 14.2072 132.001 11.9987H148C150.209 11.9987 152 13.7898 152 15.9983Z" fill="black"/>
</svg>
